<?xml version="1.0" encoding="UTF-8"?>
<!DOCTYPE svg PUBLIC "-//W3C//DTD SVG 1.1//EN" "http://www.w3.org/Graphics/SVG/1.1/DTD/svg11.dtd">
<!-- Creator: CorelDRAW X7 -->
<svg xmlns="http://www.w3.org/2000/svg" xml:space="preserve" width="8.5in" height="11in" version="1.1" style="shape-rendering:geometricPrecision; text-rendering:geometricPrecision; image-rendering:optimizeQuality; fill-rule:evenodd; clip-rule:evenodd"
viewBox="0 0 8500 11000"
 xmlns:xlink="http://www.w3.org/1999/xlink">
 <defs>
  <style type="text/css">
   <![CDATA[
    .fil6 {fill:#121149}
    .fil5 {fill:#273B7A}
    .fil4 {fill:#B54324}
    .fil3 {fill:#D35933}
    .fil1 {fill:#FEE187}
    .fil2 {fill:#FFC61B}
    .fil0 {fill:#373435;fill-rule:nonzero}
   ]]>
  </style>
 </defs>
 <g id="Layer_x0020_1">
  <metadata id="CorelCorpID_0Corel-Layer"/>
  <path class="fil0" d="M1701 5903l0 -997 442 0c89,0 157,9 203,27 46,17 83,49 111,94 27,46 41,96 41,151 0,70 -23,130 -69,179 -45,48 -116,79 -212,92 35,17 62,33 80,50 39,35 75,79 109,132l173 272 -165 0 -132 -207c-38,-61 -70,-106 -95,-138 -25,-32 -47,-54 -67,-67 -20,-12 -40,-21 -60,-26 -15,-3 -40,-5 -74,-5l-152 0 0 443 -133 0zm133 -557l283 0c60,0 107,-6 141,-19 34,-12 60,-32 77,-60 18,-27 27,-57 27,-89 0,-47 -17,-86 -52,-117 -34,-30 -88,-45 -161,-45l-315 0 0 330zm1348 323l127 17c-20,73 -56,131 -110,171 -54,41 -123,62 -207,62 -105,0 -189,-33 -251,-98 -61,-65 -92,-156 -92,-273 0,-122 31,-216 93,-283 63,-67 144,-100 244,-100 96,0 175,33 236,98 61,66 91,158 91,277 0,8 0,19 0,33l-539 0c5,79 27,140 68,182 40,42 90,63 150,63 45,0 83,-12 115,-35 32,-24 57,-62 75,-114zm-401 -196l403 0c-6,-61 -21,-107 -46,-137 -39,-47 -90,-71 -152,-71 -56,0 -103,19 -141,56 -39,38 -60,89 -64,152zm634 214l122 -19c6,48 25,85 56,111 32,26 75,39 131,39 56,0 98,-11 126,-34 27,-23 40,-50 40,-81 0,-27 -12,-49 -36,-65 -17,-11 -59,-25 -126,-42 -89,-22 -151,-42 -186,-58 -35,-17 -61,-40 -79,-69 -18,-29 -27,-61 -27,-96 0,-33 8,-62 22,-90 15,-27 35,-50 60,-68 19,-14 45,-26 78,-36 33,-9 68,-14 106,-14 57,0 106,8 149,24 43,17 74,39 95,67 20,28 34,65 42,112l-120 17c-5,-38 -21,-67 -47,-88 -26,-21 -63,-32 -110,-32 -56,0 -96,9 -120,28 -24,19 -36,40 -36,65 0,16 5,30 15,43 10,13 25,24 46,33 13,4 48,15 108,31 87,23 147,42 182,57 34,14 61,36 80,64 20,28 30,63 30,104 0,41 -12,79 -36,115 -24,36 -58,64 -103,84 -45,20 -96,30 -153,30 -93,0 -165,-20 -214,-59 -50,-39 -81,-96 -95,-173zm1012 107l17 108c-35,7 -66,11 -93,11 -44,0 -78,-7 -103,-21 -24,-14 -42,-33 -52,-56 -10,-23 -14,-71 -14,-145l0 -416 -91 0 0 -95 91 0 0 -179 122 -73 0 252 123 0 0 95 -123 0 0 423c0,35 2,58 7,68 4,10 11,18 21,24 9,6 23,9 41,9 14,0 32,-2 54,-5zm593 19c-45,38 -89,66 -131,82 -42,16 -87,24 -136,24 -79,0 -140,-20 -183,-59 -43,-38 -64,-88 -64,-148 0,-35 8,-67 24,-97 16,-29 38,-52 64,-70 26,-17 55,-31 88,-40 24,-6 60,-12 109,-18 99,-12 172,-26 219,-42 0,-17 0,-28 0,-32 0,-50 -11,-85 -34,-105 -32,-28 -78,-42 -140,-42 -58,0 -101,11 -128,31 -28,20 -48,56 -61,107l-120 -16c11,-52 29,-93 54,-125 25,-31 61,-56 108,-73 48,-17 103,-25 165,-25 62,0 112,7 151,22 38,14 67,32 85,54 18,22 31,50 38,84 4,21 6,58 6,113l0 162c0,114 3,185 8,216 5,30 15,59 30,87l-128 0c-13,-26 -20,-56 -24,-90zm-10 -272c-44,18 -111,33 -200,46 -51,7 -87,15 -108,24 -20,9 -36,23 -48,40 -11,17 -17,36 -17,58 0,32 12,59 37,81 25,21 61,32 109,32 47,0 89,-10 126,-31 37,-20 64,-48 81,-84 13,-27 20,-68 20,-121l0 -45zm785 362l0 -107c-56,82 -132,123 -229,123 -42,0 -82,-9 -119,-25 -37,-16 -64,-37 -82,-61 -18,-25 -30,-55 -38,-91 -5,-24 -7,-62 -7,-114l0 -448 123 0 0 400c0,64 2,107 7,129 8,33 24,58 49,76 25,18 55,28 92,28 37,0 71,-10 103,-28 32,-19 55,-45 68,-77 14,-33 20,-80 20,-141l0 -387 123 0 0 723 -110 0zm301 0l0 -723 110 0 0 111c28,-51 54,-85 78,-102 24,-16 50,-24 79,-24 41,0 83,13 126,39l-44 113c-29,-17 -59,-25 -89,-25 -26,0 -50,8 -72,24 -21,16 -36,38 -45,67 -13,43 -20,91 -20,142l0 378 -123 0zm938 -90c-46,38 -90,66 -132,82 -42,16 -87,24 -135,24 -79,0 -140,-20 -183,-59 -43,-38 -64,-88 -64,-148 0,-35 8,-67 24,-97 16,-29 37,-52 63,-70 26,-17 56,-31 88,-40 25,-6 61,-12 110,-18 99,-12 172,-26 218,-42 1,-17 1,-28 1,-32 0,-50 -12,-85 -35,-105 -31,-28 -78,-42 -140,-42 -57,0 -100,11 -128,31 -27,20 -47,56 -61,107l-119 -16c11,-52 28,-93 53,-125 26,-31 62,-56 109,-73 47,-17 102,-25 165,-25 61,0 112,7 150,22 39,14 68,32 86,54 18,22 31,50 38,84 4,21 6,58 6,113l0 162c0,114 3,185 8,216 5,30 15,59 30,87l-128 0c-13,-26 -21,-56 -24,-90zm-10 -272c-45,18 -111,33 -201,46 -50,7 -86,15 -107,24 -21,9 -37,23 -48,40 -12,17 -17,36 -17,58 0,32 12,59 37,81 25,21 61,32 109,32 47,0 89,-10 126,-31 36,-20 63,-48 81,-84 13,-27 19,-68 19,-121l1 -45zm312 362l0 -723 110 0 0 103c53,-79 130,-118 230,-118 44,0 84,8 120,23 37,16 64,36 82,62 18,25 31,55 38,90 5,23 7,63 7,119l0 444 -123 0 0 -439c0,-50 -4,-87 -14,-112 -9,-25 -26,-44 -50,-59 -25,-15 -53,-22 -86,-22 -52,0 -97,16 -134,49 -38,33 -57,96 -57,189l0 394 -123 0zm1041 -109l17 108c-34,7 -65,11 -92,11 -44,0 -79,-7 -103,-21 -25,-14 -42,-33 -52,-56 -10,-23 -15,-71 -15,-145l0 -416 -90 0 0 -95 90 0 0 -179 123 -73 0 252 122 0 0 95 -122 0 0 423c0,35 2,58 6,68 4,10 11,18 21,24 10,6 24,9 42,9 13,0 31,-2 53,-5z"/>
  <g id="_348121880">
   <path class="fil1" d="M0 5439l0 124c43,96 -20,112 151,346l70 68c49,37 66,55 131,86 123,59 179,46 225,63l25 0 -377 -383c-12,-4 -6,4 -11,-11 0,-43 0,-86 0,-128 1,-62 -18,-46 -3,-105 10,-42 1,-184 4,-241 15,3 9,-2 17,8 17,16 31,24 48,41 16,16 28,28 44,45 29,31 57,58 85,89 2,-35 -1,-75 6,-106 43,-20 150,-9 209,-10 40,0 80,0 120,0 44,0 78,-9 94,22 28,13 61,55 84,79 16,16 28,27 42,42 17,18 20,33 52,34l2 -239c27,-9 9,-2 16,1 26,17 82,81 109,108 27,27 75,88 106,107l0 -40c-23,-52 -8,-152 -119,-304 -10,-13 -22,-27 -32,-41 -15,-21 -15,-16 -33,-33 -58,-53 -80,-78 -164,-119 -32,-16 -64,-29 -100,-40 -36,-10 -83,-12 -115,-25l-123 0c-49,21 -98,6 -218,66 -120,60 -221,162 -280,282 -58,117 -45,169 -65,214z"/>
   <path class="fil2" d="M225 5743l377 383 61 0c63,-19 105,-1 230,-61 69,-33 132,-78 175,-120 14,-14 21,-24 33,-39 38,-48 57,-73 87,-136 61,-129 41,-162 61,-230l0 -61c-31,-19 -79,-80 -106,-107 -27,-27 -83,-91 -109,-108 3,81 -6,176 7,247 7,34 -3,48 -4,57 -6,25 1,132 -2,153l-8 23c-18,-15 -9,-153 -10,-184l-124 0c0,33 0,66 0,100 0,24 9,70 -10,84 -12,-16 -8,-42 -8,-62 0,-21 0,-41 0,-61 0,-45 -7,-74 -8,-119l149 0c-32,-1 -35,-16 -52,-34 -14,-15 -26,-26 -42,-42 -23,-24 -56,-66 -84,-79l-1 317c-30,5 -43,-31 -98,-33 -34,-1 -79,10 -104,26l-1 69c29,0 100,-12 117,11 -20,15 -104,8 -129,8 -22,0 -44,0 -67,0 -75,1 -50,4 -57,-18l117 -1 2 -61c-55,13 -143,51 -202,24l-6 -248c-28,-31 -56,-58 -85,-89 -16,-17 -28,-29 -44,-45 -17,-17 -31,-25 -48,-41l3 235 147 2c0,51 -9,103 -8,184 1,20 3,43 -8,58 -19,-15 -10,-154 -10,-185l-124 0c0,38 11,158 -7,183z"/>
   <path class="fil3" d="M409 5441l6 248c59,27 147,-11 202,-24l6 -7 1 -333c-59,1 -166,-10 -209,10 -7,31 -4,71 -6,106z"/>
   <path class="fil4" d="M623 5658l12 -1c25,-16 70,-27 104,-26 55,2 68,38 98,33l1 -317c-16,-31 -50,-22 -94,-22 -40,0 -80,0 -120,0l-1 333z"/>
   <path class="fil5" d="M225 5743c18,-25 7,-145 7,-183l124 0c0,31 -9,170 10,185 11,-15 9,-38 8,-58 -1,-81 8,-133 8,-184l-147 -2 -3 -235c-8,-10 -2,-5 -17,-8 -3,57 6,199 -4,241 -15,59 4,43 3,105 0,42 0,85 0,128 5,15 -1,7 11,11z"/>
   <path class="fil6" d="M1016 5502l-149 0c1,45 8,74 8,119 0,20 0,40 0,61 0,20 -4,46 8,62 19,-14 10,-60 10,-84 0,-34 0,-67 0,-100l124 0c1,31 -8,169 10,184l8 -23c3,-21 -4,-128 2,-153 1,-9 11,-23 4,-57 -13,-71 -4,-166 -7,-247 -7,-3 11,-10 -16,-1l-2 239z"/>
   <path class="fil6" d="M622 5745c25,0 109,7 129,-8 -17,-23 -88,-11 -117,-11l1 -69 -12 1 -1 87z"/>
   <path class="fil5" d="M622 5745l1 -87 -6 7 -2 61 -117 1c7,22 -18,19 57,18 23,0 45,0 67,0z"/>
  </g>
 </g>
</svg>
